<svg xmlns="http://www.w3.org/2000/svg" width="45.484" height="32.848" viewBox="6 0 45.484 32.848"><path d="M8.61 0h40.265c.718 0 1.37.318 1.843.833.47.511.766 1.228.766 2.004v27.17c0 .78-.292 1.489-.766 2.004-.47.511-1.125.837-1.843.837H8.61c-.719 0-1.37-.318-1.844-.833A2.965 2.965 0 0 1 6 30.007V2.837c0-.78.292-1.489.766-2.008C7.24.318 7.891 0 8.61 0Zm32.555 21.193h1.913l1.425 4.954 1.407-4.954h1.984l-2.35 6.886h-2.122l-2.324-6.693-2.288 6.693h-2.12l-2.392-6.886h2.043l1.426 4.954 1.406-4.954h1.992Zm-8.758 4.065 1.714.563c-.115.524-.297.962-.545 1.308-.248.35-.555.616-.921.793-.367.177-.833.27-1.403.27-.689 0-1.251-.109-1.688-.326-.437-.218-.81-.6-1.129-1.147-.318-.548-.478-1.248-.478-2.101 0-1.139.278-2.012.837-2.624.559-.612 1.347-.918 2.365-.918.796 0 1.425.173 1.88.528.456.35.796.89 1.019 1.618l-1.725.414c-.06-.21-.122-.362-.19-.455a1.192 1.192 0 0 0-.403-.374 1.078 1.078 0 0 0-.533-.133c-.444 0-.784.193-1.021.58-.178.285-.267.74-.267 1.352 0 .765.108 1.284.319 1.565.214.282.514.423.9.423.373 0 .658-.113.847-.342.196-.23.337-.56.422-.994Zm-3.472-14.653h8.584c.536 0 .973.479.973 1.058v3.662c0 .584-.44 1.059-.973 1.059h-8.584c-.537 0-.974-.475-.974-1.059v-3.662c-.004-.58.437-1.058.974-1.058Zm10.582 3.67v1.054c0 .6-.225 1.143-.588 1.538a.762.762 0 0 1-.082.076c-.355.346-.821.56-1.332.56h-8.58a1.917 1.917 0 0 1-1.41-.64l-.004-.004-.004.004a2.267 2.267 0 0 1-.589-1.538v-1.054H7.51v15.736c0 .326.122.624.326.845.2.217.474.354.777.354h40.265c.3 0 .574-.133.778-.354.2-.217.326-.515.326-.845V14.27H39.517v.004Zm-27.739 7.063c-.418 0-.755-.37-.755-.825 0-.455.34-.821.755-.821h10.757c.418 0 .755.37.755.821 0 .455-.34.825-.755.825H11.778Zm0 4.314c-.418 0-.755-.37-.755-.825 0-.454.34-.82.755-.82h6.615c.418 0 .755.37.755.824 0 .455-.34.821-.755.821h-6.615ZM7.51 6.113h42.464V2.837c0-.326-.122-.624-.326-.845a1.055 1.055 0 0 0-.777-.354H8.61c-.3 0-.574.133-.778.354-.2.221-.322.52-.322.845v3.276Z" fill="#fff" fill-rule="evenodd" data-name="Path 207"/></svg>