<svg xmlns="http://www.w3.org/2000/svg" width="40.875" height="46.311" viewBox="1454 1043.558 40.875 46.311"><path d="M1484.428 1066.637h5.82v-1.127c-.333-1.232-.863-2.068-1.55-2.576-.686-.507-1.576-.725-2.62-.717l-23.87.005a1.063 1.063 0 1 1 0-2.127l23.842.003c1.5-.015 2.824.327 3.911 1.133.098.072.194.148.287.228v-.64c0-.992-.41-1.9-1.07-2.56a3.594 3.594 0 0 0-2.557-1.067h-.768l-.099-.004-.375 1.407h-2.58l1.53-5.74a2.42 2.42 0 0 1-1.707-2.959l-8.51-2.28a2.42 2.42 0 0 1-2.958 1.71l-2.499 9.269h-2.66l4.048-15.037 18.059 4.839-1.78 6.667h.299a5.74 5.74 0 0 1 4.06 1.693 5.726 5.726 0 0 1 1.694 4.063v5.877a3.104 3.104 0 0 1 1.589.852 3.1 3.1 0 0 1 .911 2.195v6.995c0 .893-.365 1.705-.951 2.29a3.242 3.242 0 0 1-1.55.865v4.22c0 1.579-.649 3.02-1.692 4.063l-.067.061a5.74 5.74 0 0 1-3.994 1.63h-26.867c-1.58 0-3.02-.648-4.064-1.69a5.738 5.738 0 0 1-1.69-4.064v-23.294c0-1.585.648-3.024 1.69-4.065a5.74 5.74 0 0 1 4.064-1.69H1463.126l2.672-9.924 2.55.682-3.503 12.772h-2.67l.378-1.403h-2.799a3.62 3.62 0 0 0-2.56 1.067 3.618 3.618 0 0 0-1.067 2.56v23.295c0 .995.41 1.902 1.068 2.559a3.615 3.615 0 0 0 2.56 1.069h26.866c.97 0 1.857-.389 2.508-1.017l.049-.053a3.616 3.616 0 0 0 1.07-2.558v-4.134h-5.82a6.516 6.516 0 0 1-4.614-1.917l-.111-.122a6.51 6.51 0 0 1-1.807-4.493v-.28c0-1.79.735-3.421 1.918-4.607l.012-.011a6.512 6.512 0 0 1 4.602-1.913Zm-8.656-8.416a2.917 2.917 0 1 0 1.509-5.634 2.917 2.917 0 0 0-1.509 5.634Zm10.991 13.287.006.004a2.55 2.55 0 0 1-.002 3.594l-.004.005a2.55 2.55 0 0 1-3.595-.001l-.005-.005a2.55 2.55 0 0 1 .002-3.595l.005-.004a2.548 2.548 0 0 1 3.593.002Z" fill="#fff" fill-rule="evenodd" data-name="wallet-money-icon"/></svg>