<svg xmlns="http://www.w3.org/2000/svg" width="46" height="44.663" viewBox="1636 1047.168 46 44.663"><path d="m1641.13 1065.18-2.134-5.785c-.116-.316-.099-.663.049-.966a1.286 1.286 0 0 1 1.04-.714l6.138-.622.636-6.002c.035-.333.205-.64.473-.851a1.326 1.326 0 0 1 1.22-.222l5.99 1.495 3.475-3.905a1.334 1.334 0 0 1 1.835-.138c.086.073.163.156.228.247l3.37 4.425 5.958-2.11a1.339 1.339 0 0 1 1.002.047 1.28 1.28 0 0 1 .742 1.026l.637 6.003 6.182.603a1.3 1.3 0 0 1 1.016.663 1.23 1.23 0 0 1-.002 1.188l-2.733 5.006 5.242 3.938a1.232 1.232 0 0 1 .232 1.77 1.176 1.176 0 0 1-.27.255l-4.567 3.297 2.171 5.785c.244.655-.104 1.379-.778 1.618a1.32 1.32 0 0 1-.311.069l-6.182.618-.637 5.97c-.074.693-.712 1.196-1.426 1.127a1.382 1.382 0 0 1-.476-.139l-5.167-2.628-4.062 5.09c-.25.317-.641.5-1.053.493a1.307 1.307 0 0 1-1.033-.53l-3.4-4.453-5.957 2.087c-.37.126-.778.083-1.112-.117a1.26 1.26 0 0 1-.607-.912l-.636-5.367-6.28-1.261a1.297 1.297 0 0 1-.823-.54 1.228 1.228 0 0 1-.187-.947.931.931 0 0 1 .063-.226l2.134-5.733-4.605-3.312a1.241 1.241 0 0 1 .019-2.04l4.586-3.3Zm23.361-2.255-7.65 12.914a2.49 2.49 0 0 1-.25.363 1.025 1.025 0 0 1-.307.259c-.13.061-.269.1-.412.112a3.952 3.952 0 0 1-.49.026h-1.446a.428.428 0 0 1-.434-.418.42.42 0 0 1 .078-.244l7.654-12.928c.07-.128.152-.25.243-.364v-.022c.082-.095.18-.175.292-.236.14-.06.29-.094.442-.098.16-.019.322-.027.483-.026h1.442c.238 0 .432.187.434.418a.42.42 0 0 1-.079.244Zm-2.77 13.114c-.645-.655-.97-1.658-.97-3.01 0-1.353.325-2.356.97-3.01.643-.655 1.692-.982 3.145-.982 1.452 0 2.5.327 3.145.981.644.655.966 1.658.966 3.01 0 1.353-.322 2.356-.966 3.01-.644.655-1.693.982-3.145.982-1.453 0-2.502-.327-3.146-.981Zm2.246-4.16v2.91h.487c.41.008.82-.024 1.224-.095.083-.066.124-.244.124-.531v-2.909h-1.124a1.153 1.153 0 0 0-.591.095c-.079.065-.12.243-.12.53Zm-13.966-2.897c-.644-.654-.966-1.658-.966-3.01 0-1.353.322-2.356.966-3.01.644-.655 1.692-.982 3.145-.982s2.501.327 3.145.981c.644.655.966 1.658.966 3.01 0 1.353-.322 2.357-.966 3.011-.644.654-1.692.982-3.145.982s-2.501-.328-3.145-.982Zm2.246-4.16v2.91h1.124c.201.02.405-.014.587-.099.083-.065.124-.243.124-.53v-2.91h-.51c-.409-.009-.818.024-1.22.099-.082.062-.123.24-.123.527Zm-10.255-4.762 1.872 5.09c.23.536.053 1.155-.427 1.502l-3.954 2.854 3.969 2.857c.466.334.649.927.45 1.454l-1.97 5.287 5.676 1.149a1.284 1.284 0 0 1 1.123 1.108l.558 4.69 5.261-1.84a1.323 1.323 0 0 1 1.517.404l2.961 3.883 3.647-4.584a1.327 1.327 0 0 1 1.666-.39l4.422 2.258.562-5.13a1.28 1.28 0 0 1 1.146-1.127l5.594-.57-1.947-5.13a1.237 1.237 0 0 1 .442-1.455l3.995-2.879-4.688-3.516a1.25 1.25 0 0 1-.423-1.654l2.344-4.29-5.302-.527a1.284 1.284 0 0 1-1.16-1.13l-.589-5.414-5.283 1.872a1.326 1.326 0 0 1-1.498-.43l-3.025-3.962-2.92 3.298c-.324.364-.832.519-1.311.4l-5.407-1.335-.592 5.556a1.28 1.28 0 0 1-1.16 1.141l-5.55.56Z" fill="#fff" fill-rule="evenodd" data-name="offer-icon"/></svg>