<svg xmlns="http://www.w3.org/2000/svg" width="40.005" height="41.358"><path d="m38.181 38.299-.754-.869-3.581 3.582-.004-.004c-.4.401-1.05.408-1.457.01l-3.65-3.547-3.574 3.433a1.039 1.039 0 0 1-1.45.04l-3.794-3.504-3.444 3.545-.06.067a1.038 1.038 0 0 1-1.471 0L11.33 37.44l-3.723 3.548a1.039 1.039 0 0 1-1.45-.02L2.614 37.39l-.737.848A1.04 1.04 0 0 1 0 37.618V1.04C0 .465.465 0 1.04 0h37.925c.576 0 1.04.465 1.04 1.04V37.62h-.003c0 .29-.121.579-.36.784-.431.377-1.087.33-1.461-.104ZM9.974 29.096v-1.653a7.944 7.944 0 0 1-1.118-.215 4.76 4.76 0 0 1-.902-.343 3.13 3.13 0 0 1-.734-.532 4.177 4.177 0 0 1-.623-.778 4.053 4.053 0 0 1-.45-1.003 5.45 5.45 0 0 1-.213-1.202v-.016l.017-.004 1.67-.323.017-.003.003.017c.064.45.155.838.266 1.168.114.33.252.595.414.804.232.296.488.525.767.69.273.162.57.26.886.296v-5.197a7.844 7.844 0 0 1-1.027-.347c-.35-.144-.704-.32-1.06-.518a3.065 3.065 0 0 1-1.232-1.235 3.398 3.398 0 0 1-.323-.849c-.071-.3-.108-.616-.108-.949 0-.596.104-1.134.316-1.615a3.66 3.66 0 0 1 .95-1.28c.282-.249.632-.447 1.05-.599a6.05 6.05 0 0 1 1.44-.31v-.797H11v.797c.475.048.906.142 1.283.283.383.145.72.337 1.006.576.364.306.656.666.875 1.084.22.417.367.895.441 1.427l.004.017-.017.003-1.707.266-.017.004-.003-.017a3.782 3.782 0 0 0-.226-.872 2.107 2.107 0 0 0-.383-.636 1.981 1.981 0 0 0-.549-.435 2.689 2.689 0 0 0-.7-.252v4.77c.41.104.75.198 1.023.28.283.083.492.157.63.215.259.114.494.242.707.38.212.138.4.293.562.458a3.364 3.364 0 0 1 .76 1.171c.088.226.155.461.199.707.044.246.067.498.067.76 0 1.159-.367 2.125-1.104 2.902a3.883 3.883 0 0 1-1.265.892 4.5 4.5 0 0 1-1.572.354v1.686H9.994v-.027h-.02Zm19.725-1.491a.767.767 0 1 1 0 1.535H18.91a.767.767 0 1 1 0-1.535H29.7Zm4.389-15.332a.767.767 0 1 1 0 1.534H18.91a.767.767 0 1 1 0-1.534h15.178Zm-.04 10.222a.767.767 0 1 1 0 1.535H18.91a.767.767 0 1 1 0-1.535h15.137Zm.04-5.113a.767.767 0 1 1 0 1.535H18.91a.767.767 0 1 1 0-1.535h15.178ZM9.974 14.514c-.313.05-.596.138-.842.266a2.099 2.099 0 0 0-.653.509 2.224 2.224 0 0 0-.417.683c-.091.246-.138.511-.138.798 0 .282.04.542.117.777.078.236.196.448.354.64.158.188.37.357.636.501.263.142.576.26.946.357v-4.53h-.003Zm1.02 11.492a2.443 2.443 0 0 0 1.575-.835c.208-.239.367-.505.471-.8.104-.297.158-.62.158-.974 0-.303-.037-.572-.11-.814a1.882 1.882 0 0 0-.334-.636c-.148-.182-.37-.347-.667-.495a5.85 5.85 0 0 0-1.09-.39v4.944h-.004ZM33.92 5.268a1.075 1.075 0 0 1 0 2.15 1.075 1.075 0 0 1 0-2.15Zm-6.958 0a1.075 1.075 0 0 1 0 2.15 1.075 1.075 0 0 1-1.074-1.073 1.071 1.071 0 0 1 1.074-1.077Zm-6.958 0a1.075 1.075 0 0 1 0 2.15 1.075 1.075 0 0 1-1.073-1.073 1.071 1.071 0 0 1 1.073-1.077Zm-6.96 0a1.075 1.075 0 0 1 0 2.15 1.075 1.075 0 0 1 0-2.15Zm-6.958 0a1.075 1.075 0 0 1 0 2.15 1.075 1.075 0 0 1-1.074-1.073 1.071 1.071 0 0 1 1.074-1.077Zm31.84 29.698V2.084H2.083V34.95a1.041 1.041 0 0 1 1.16.134c.021.017.041.034.058.054l3.612 3.649 3.72-3.541c.41-.39 1.053-.38 1.45.017l.003-.004 3.582 3.582 3.467-3.572a1.038 1.038 0 0 1 1.447-.04l3.82 3.528 3.623-3.474a1.042 1.042 0 0 1 1.45.01l3.626 3.524 3.645-3.645c.313-.32.791-.387 1.178-.206Z" fill="#fff" fill-rule="evenodd" data-name="Path 216"/></svg>