<svg xmlns="http://www.w3.org/2000/svg" width="103.417" height="118.178" viewBox="23.996 340.655 51.709 59.089"><g data-name="order-placement"><path d="M36.822 340.655H57.53c.294 0 .442.147.442.441v7.322c0 .294-.148.441-.442.441H36.822c-.294 0-.441-.147-.441-.441v-7.322c0-.294.147-.441.441-.441Z" fill="#36024a" fill-rule="evenodd" data-name="Path 94"/><path d="M48.065 387.23c0-8.578 6.84-15.531 15.28-15.531a15.012 15.012 0 0 1 7.045 1.747c-.025-12.835-.033-25.846-.033-25.846 0-.87-.693-1.58-1.539-1.58h-8.285v3.892c0 .868-.692 1.579-1.538 1.579H35.358c-.846 0-1.539-.714-1.539-1.579v-3.892h-8.284c-.847 0-1.539.714-1.539 1.58v49.895c0 .869.692 1.58 1.54 1.58h27.926a15.604 15.604 0 0 1-5.397-11.844ZM32.59 361.189a.727.727 0 0 1 .713-.733h27.745a.727.727 0 0 1 .714.733v3.91a.727.727 0 0 1-.714.734H33.305a.727.727 0 0 1-.714-.734l-.001-3.91Zm14.944 16.445a.726.726 0 0 1-.714.733H33.305a.726.726 0 0 1-.714-.733v-3.91a.727.727 0 0 1 .714-.732h13.514a.726.726 0 0 1 .714.733v3.909Z" fill="#36024a" fill-rule="evenodd" data-name="Path 95"/><path d="M63.397 374.715c-6.798 0-12.31 5.603-12.31 12.513s5.514 12.515 12.31 12.515c6.795 0 12.308-5.601 12.308-12.512 0-6.911-5.511-12.516-12.308-12.516Zm6.32 15.551-5.626 5.635a.906.906 0 0 1-1.284 0l-5.628-5.635a1.784 1.784 0 0 1 2.522-2.522l1.917 1.918v-7.99a1.783 1.783 0 1 1 3.567 0v8.084l1.973-1.975c.745-.746 1.958-.736 2.647.062.61.706.57 1.762-.088 2.423Z" fill="#36024a" fill-rule="evenodd" data-name="Path 96"/></g></svg>