<svg xmlns="http://www.w3.org/2000/svg" width="35.211" height="41.926"><path d="M29.775 8.681h-.768v-7.68C29.007.45 28.6 0 28.1 0H7.11c-.5 0-.906.449-.906 1.002v7.68h-.769C2.44 8.681 0 11.377 0 14.691v12.41c0 3.314 2.439 6.01 5.436 6.01h.769v7.813c0 .553.405 1.001.906 1.001H28.1c.5 0 .906-.448.906-1.001v-7.813h.768c2.997 0 5.436-2.696 5.436-6.01v-12.41c0-3.314-2.439-6.01-5.436-6.01ZM8.017 2.004h19.178V8.68H8.017V2.004Zm19.178 37.92H8.017V27.567h19.178v12.355Zm6.204-12.822c0 2.21-1.626 4.007-3.624 4.007h-.768v-3.541h1.96c.5 0 .905-.449.905-1.002 0-.553-.405-1.002-.906-1.002H4.513c-.5 0-.906.449-.906 1.002 0 .553.406 1.002.906 1.002h1.692v3.54h-.769c-1.998 0-3.624-1.797-3.624-4.006v-12.41c0-2.21 1.626-4.007 3.624-4.007h24.339c1.998 0 3.624 1.798 3.624 4.007v12.41Z" fill="#fff" fill-rule="evenodd" data-name="Path 111"/></svg>