<svg xmlns="http://www.w3.org/2000/svg" width="20.859" height="21.671" viewBox="2165.571 1708.165 20.859 21.671"><g data-name="CompositeLayer"><path d="M2175.28 1724.789c0-3.46 2.76-6.266 6.163-6.266.991-.001 1.967.241 2.842.705-.01-5.178-.013-10.426-.013-10.426a.63.63 0 0 0-.62-.637h-3.343v1.57a.63.63 0 0 1-.62.636h-9.535a.632.632 0 0 1-.621-.636v-1.57h-3.342a.631.631 0 0 0-.62.637v20.127c0 .35.279.637.62.637h11.266a6.294 6.294 0 0 1-2.177-4.777Zm-6.243-10.506a.293.293 0 0 1 .288-.295h11.192c.16.003.29.135.288.295v1.578a.293.293 0 0 1-.288.295h-11.191a.293.293 0 0 1-.288-.295v-1.578Zm6.028 6.634a.293.293 0 0 1-.287.296h-5.452a.293.293 0 0 1-.288-.296v-1.577a.293.293 0 0 1 .288-.296h5.451c.161.003.29.135.288.296v1.577Z" fill="#fff" fill-rule="evenodd" data-name="Path 95"/><path d="M2181.464 1719.74c-2.742 0-4.965 2.26-4.965 5.048 0 2.787 2.224 5.048 4.965 5.048 2.742 0 4.965-2.26 4.965-5.047 0-2.788-2.223-5.049-4.965-5.049Zm2.55 6.273-2.27 2.273a.365.365 0 0 1-.518 0l-2.27-2.273a.72.72 0 0 1 1.017-1.018l.774.774v-3.223a.72.72 0 0 1 1.439 0v3.261l.796-.796c.3-.301.79-.297 1.067.025a.72.72 0 0 1-.035.977Z" fill="#fff" fill-rule="evenodd" data-name="Path 96"/></g></svg>