<svg xmlns="http://www.w3.org/2000/svg" width="26.6" height="29.854"><path d="M.57 2.34h9.305V.913c0-.502.41-.913.913-.913h5.137c.503 0 .914.41.914.913v1.428h9.19c.315 0 .57.256.57.57V5.71H0V2.91c0-.314.256-.57.57-.57Zm1.541 4.853h22.576c.47 0 .898.388.855.856l-1.91 20.95c-.043.467-.387.855-.856.855H3.996c-.47 0-.815-.387-.857-.856L1.255 8.048c-.042-.469.385-.855.856-.855Zm14.671 3.253h2.397v15.869h-2.397V10.446Zm-9.476 0h2.397v15.869H7.306V10.446Zm4.738 0h2.397v15.869h-2.397V10.446Z" fill="#fff" fill-rule="evenodd" data-name="Path 210"/></svg>